<?xml version="1.0" encoding="UTF-8" standalone="no"?>
<svg xmlns="http://www.w3.org/2000/svg" xmlns:xlink="http://www.w3.org/1999/xlink" contentScriptType="application/ecmascript" contentStyleType="text/css" height="505px" preserveAspectRatio="none" style="width:1905px;height:505px;" version="1.1" viewBox="0 0 1905 505" width="1905px" zoomAndPan="magnify"><defs/><g><!--MD5=[f123118d52904d6ebbc6867ca665b2f6]
cluster SoftSonnette--><polygon fill="#FFFFFF" points="16,6,126,6,133,28.2969,1888,28.2969,1888,498,16,498,16,6" style="stroke:#000000;stroke-width:1.5;"/><line style="stroke:#000000;stroke-width:1.5;" x1="16" x2="133" y1="28.2969" y2="28.2969"/><text fill="#000000" font-family="sans-serif" font-size="14" font-weight="bold" lengthAdjust="spacingAndGlyphs" textLength="104" x="20" y="20.9951">SoftSonnette</text><!--MD5=[4cbdae22ae30805c8ceb6d57ff550507]
cluster com--><polygon fill="#FFFFFF" points="144,49,183,49,190,71.2969,994,71.2969,994,474,144,474,144,49" style="stroke:#000000;stroke-width:1.5;"/><line style="stroke:#000000;stroke-width:1.5;" x1="144" x2="190" y1="71.2969" y2="71.2969"/><text fill="#000000" font-family="sans-serif" font-size="14" font-weight="bold" lengthAdjust="spacingAndGlyphs" textLength="33" x="148" y="63.9951">com</text><!--MD5=[7e58cded80669b4e2cbc27e2913c3739]
class cameraman--><rect codeLine="10" fill="#FEFECE" height="37.9375" id="cameraman" style="stroke:#A80036;stroke-width:1.5;" width="167" x="1329.5" y="315"/><text fill="#000000" font-family="sans-serif" font-size="12" font-style="italic" lengthAdjust="spacingAndGlyphs" textLength="51" x="1387.5" y="331.1387">«active»</text><text fill="#000000" font-family="sans-serif" font-size="12" lengthAdjust="spacingAndGlyphs" textLength="161" x="1332.5" y="345.1074">cameraman : Cameraman</text><!--MD5=[c48f5c3425ec2ca0ff9821f72dfef99f]
class guard--><rect codeLine="14" fill="#FEFECE" height="23.9688" id="guard" style="stroke:#A80036;stroke-width:1.5;" width="93" x="31.5" y="98"/><text fill="#000000" font-family="sans-serif" font-size="12" lengthAdjust="spacingAndGlyphs" textLength="87" x="34.5" y="114.1387">guard : Guard</text><!--MD5=[1c457c19bdf96a11d7f70d79b73412f8]
class clock--><rect codeLine="18" fill="#FEFECE" height="37.9375" id="clock" style="stroke:#A80036;stroke-width:1.5;" width="83" x="1788.5" y="315"/><text fill="#000000" font-family="sans-serif" font-size="12" font-style="italic" lengthAdjust="spacingAndGlyphs" textLength="76" x="1792" y="331.1387">«protected»</text><text fill="#000000" font-family="sans-serif" font-size="12" lengthAdjust="spacingAndGlyphs" textLength="77" x="1791.5" y="345.1074">clock : Clock</text><!--MD5=[80bb68bef83ce4b9a9fc719475d7d6fe]
class bouncer--><rect codeLine="22" fill="#FEFECE" height="37.9375" id="bouncer" style="stroke:#A80036;stroke-width:1.5;" width="122" x="1411" y="420"/><text fill="#000000" font-family="sans-serif" font-size="12" font-style="italic" lengthAdjust="spacingAndGlyphs" textLength="51" x="1446.5" y="436.1387">«active»</text><text fill="#000000" font-family="sans-serif" font-size="12" lengthAdjust="spacingAndGlyphs" textLength="116" x="1414" y="450.1074">bouncer : Bouncer</text><!--MD5=[b73ca11d61024f94b66ba3564198a60b]
class recognitionAI--><rect codeLine="26" fill="#FEFECE" height="23.9688" id="recognitionAI" style="stroke:#A80036;stroke-width:1.5;" width="185" x="1568.5" y="322"/><text fill="#000000" font-family="sans-serif" font-size="12" lengthAdjust="spacingAndGlyphs" textLength="179" x="1571.5" y="338.1387">recognitionAI : RecognitionAI</text><!--MD5=[416433e6b3a173f147582faf3930b3e9]
class employeeManager--><rect codeLine="30" fill="#FEFECE" height="37.9375" id="employeeManager" style="stroke:#A80036;stroke-width:1.5;" width="248" x="1010" y="315"/><text fill="#000000" font-family="sans-serif" font-size="12" font-style="italic" lengthAdjust="spacingAndGlyphs" textLength="49" x="1109.5" y="331.1387">«entity»</text><text fill="#000000" font-family="sans-serif" font-size="12" lengthAdjust="spacingAndGlyphs" textLength="242" x="1013" y="345.1074">employeeManager : EmployeeManager</text><!--MD5=[29dc49c027cbc17b73271b9c6b65e794]
class starter--><rect codeLine="34" fill="#FEFECE" height="37.9375" id="starter" style="stroke:#A80036;stroke-width:1.5;" width="105" x="1406.5" y="91"/><text fill="#000000" font-family="sans-serif" font-size="12" font-style="italic" lengthAdjust="spacingAndGlyphs" textLength="51" x="1433.5" y="107.1387">«active»</text><text fill="#000000" font-family="sans-serif" font-size="12" lengthAdjust="spacingAndGlyphs" textLength="99" x="1409.5" y="121.1074">starter : Starter</text><!--MD5=[122e49cc6a7fea7c8127b7e15666876f]
class dataEmployee--><rect codeLine="50" fill="#FEFECE" height="37.9375" id="dataEmployee" style="stroke:#A80036;stroke-width:1.5;" width="197" x="1035.5" y="203"/><text fill="#000000" font-family="sans-serif" font-size="12" font-style="italic" lengthAdjust="spacingAndGlyphs" textLength="49" x="1109.5" y="219.1387">«entity»</text><text fill="#000000" font-family="sans-serif" font-size="12" lengthAdjust="spacingAndGlyphs" textLength="191" x="1038.5" y="233.1074">dataEmployee : DataEmployee</text><!--MD5=[4377df7767f853f19289e8a6e6d1e1ae]
class UISS--><rect codeLine="96" fill="#FEFECE" height="37.9375" id="UISS" style="stroke:#A80036;stroke-width:1.5;" width="74" x="1422" y="203"/><text fill="#000000" font-family="sans-serif" font-size="12" font-style="italic" lengthAdjust="spacingAndGlyphs" textLength="51" x="1433.5" y="219.1387">«active»</text><text fill="#000000" font-family="sans-serif" font-size="12" lengthAdjust="spacingAndGlyphs" textLength="68" x="1425" y="233.1074">UISS : UISS</text><!--MD5=[804ae4d9052a840c639f9fabb3f91d5c]
class proxyConnectionManager--><rect codeLine="39" fill="#FEFECE" height="37.9375" id="proxyConnectionManager" style="stroke:#A80036;stroke-width:1.5;" width="336" x="160" y="203"/><text fill="#000000" font-family="sans-serif" font-size="12" font-style="italic" lengthAdjust="spacingAndGlyphs" textLength="63" x="296.5" y="219.1387">«medium»</text><text fill="#000000" font-family="sans-serif" font-size="12" lengthAdjust="spacingAndGlyphs" textLength="330" x="163" y="233.1074">proxyConnectionManager : ProxyConnectionManager</text><!--MD5=[e4391e426cfa6558d377a38fdd697507]
class streamer--><rect codeLine="45" fill="#FEFECE" height="51.9063" id="streamer" style="stroke:#A80036;stroke-width:1.5;" width="133" x="844.5" y="84"/><text fill="#000000" font-family="sans-serif" font-size="12" font-style="italic" lengthAdjust="spacingAndGlyphs" textLength="73" x="874.5" y="100.1387">«boundary»</text><text fill="#000000" font-family="sans-serif" font-size="12" font-style="italic" lengthAdjust="spacingAndGlyphs" textLength="63" x="879.5" y="114.1074">«medium»</text><text fill="#000000" font-family="sans-serif" font-size="12" lengthAdjust="spacingAndGlyphs" textLength="127" x="847.5" y="128.0762">streamer : Streamer</text><!--MD5=[0b64afafa5da53b7815778eb0ce4ab0d]
class dispatcherAOP--><rect codeLine="55" fill="#FEFECE" height="37.9375" id="dispatcherAOP" style="stroke:#A80036;stroke-width:1.5;" width="203" x="775.5" y="420"/><text fill="#000000" font-family="sans-serif" font-size="12" font-style="italic" lengthAdjust="spacingAndGlyphs" textLength="63" x="845.5" y="436.1387">«medium»</text><text fill="#000000" font-family="sans-serif" font-size="12" lengthAdjust="spacingAndGlyphs" textLength="197" x="778.5" y="450.1074">dispatcherAOP : DispatcherAOP</text><!--MD5=[dba7456f2f8864cede9dd5f817235f12]
class postmanAOP--><rect codeLine="61" fill="#FEFECE" height="51.9063" id="postmanAOP" style="stroke:#A80036;stroke-width:1.5;" width="178" x="505" y="308"/><text fill="#000000" font-family="sans-serif" font-size="12" font-style="italic" lengthAdjust="spacingAndGlyphs" textLength="51" x="568.5" y="324.1387">«active»</text><text fill="#000000" font-family="sans-serif" font-size="12" font-style="italic" lengthAdjust="spacingAndGlyphs" textLength="63" x="562.5" y="338.1074">«medium»</text><text fill="#000000" font-family="sans-serif" font-size="12" lengthAdjust="spacingAndGlyphs" textLength="172" x="508" y="352.0762">postmanAOP : PostmanAOP</text><!--MD5=[1f8c59851afa039c892db6494c1e019e]
class proxyGUI--><rect codeLine="67" fill="#FEFECE" height="37.9375" id="proxyGUI" style="stroke:#A80036;stroke-width:1.5;" width="126" x="531" y="203"/><text fill="#000000" font-family="sans-serif" font-size="12" font-style="italic" lengthAdjust="spacingAndGlyphs" textLength="63" x="562.5" y="219.1387">«medium»</text><text fill="#000000" font-family="sans-serif" font-size="12" lengthAdjust="spacingAndGlyphs" textLength="120" x="534" y="233.1074">proxyGUI : ProxyGUI</text><!--MD5=[70ee5c0da2fdae5a7a1a5ed6c596ec41]
class dispatcherSP--><rect codeLine="73" fill="#FEFECE" height="37.9375" id="dispatcherSP" style="stroke:#A80036;stroke-width:1.5;" width="185" x="159.5" y="91"/><text fill="#000000" font-family="sans-serif" font-size="12" font-style="italic" lengthAdjust="spacingAndGlyphs" textLength="63" x="220.5" y="107.1387">«medium»</text><text fill="#000000" font-family="sans-serif" font-size="12" lengthAdjust="spacingAndGlyphs" textLength="179" x="162.5" y="121.1074">dispatcherSP : DispatcherSP</text><!--MD5=[136dec03f8ef0342dbf4aa8695334c1c]
class postmanSP--><rect codeLine="79" fill="#FEFECE" height="51.9063" id="postmanSP" style="stroke:#A80036;stroke-width:1.5;" width="160" x="692" y="196"/><text fill="#000000" font-family="sans-serif" font-size="12" font-style="italic" lengthAdjust="spacingAndGlyphs" textLength="51" x="746.5" y="212.1387">«active»</text><text fill="#000000" font-family="sans-serif" font-size="12" font-style="italic" lengthAdjust="spacingAndGlyphs" textLength="63" x="740.5" y="226.1074">«medium»</text><text fill="#000000" font-family="sans-serif" font-size="12" lengthAdjust="spacingAndGlyphs" textLength="154" x="695" y="240.0762">postmanSP : PostmanSP</text><!--MD5=[8d58e2cf6e8e8ec79681e57d8c1a5100]
class proxyDoorManager--><rect codeLine="85" fill="#FEFECE" height="37.9375" id="proxyDoorManager" style="stroke:#A80036;stroke-width:1.5;" width="254" x="380" y="91"/><text fill="#000000" font-family="sans-serif" font-size="12" font-style="italic" lengthAdjust="spacingAndGlyphs" textLength="63" x="475.5" y="107.1387">«medium»</text><text fill="#000000" font-family="sans-serif" font-size="12" lengthAdjust="spacingAndGlyphs" textLength="248" x="383" y="121.1074">proxyDoorManager : ProxyDoorManager</text><!--MD5=[93b3b0ea84673f5c546f4f097242a8f6]
class proxyUISP--><rect codeLine="91" fill="#FEFECE" height="37.9375" id="proxyUISP" style="stroke:#A80036;stroke-width:1.5;" width="140" x="669" y="91"/><text fill="#000000" font-family="sans-serif" font-size="12" font-style="italic" lengthAdjust="spacingAndGlyphs" textLength="63" x="707.5" y="107.1387">«medium»</text><text fill="#000000" font-family="sans-serif" font-size="12" lengthAdjust="spacingAndGlyphs" textLength="134" x="672" y="121.1074">proxyUISP : ProxyUISP</text><!--MD5=[31385f440bd2a305bc0b546ad1f01433]
reverse link clock to bouncer--><path codeLine="99" d="M1785,354.86 C1780.31,356.69 1775.58,358.44 1771,360 C1690.12,387.52 1594.16,410.99 1533.18,424.79 " fill="none" id="clock-backto-bouncer" style="stroke:#A80036;stroke-width:1.0;"/><polygon fill="#A80036" points="1789.68,353,1779.8392,352.6025,1785.0327,354.8446,1782.7906,360.0382,1789.68,353" style="stroke:#A80036;stroke-width:1.0;"/><!--MD5=[77a4d90c65811392e42c8ee7b76b94f7]
link cameraman to bouncer--><path codeLine="100" d="M1426.17,357.98 C1435.92,375.01 1449.15,398.12 1458.89,415.12 " fill="none" id="cameraman-bouncer" style="stroke:#A80036;stroke-width:1.0;"/><polygon fill="#A80036" points="1461.54,419.75,1460.5408,409.952,1459.0562,415.4105,1453.5977,413.926,1461.54,419.75" style="stroke:#A80036;stroke-width:1.0;"/><polygon fill="#A80036" points="1423.55,353.41,1424.5492,363.208,1426.0338,357.7495,1431.4923,359.234,1423.55,353.41" style="stroke:#A80036;stroke-width:1.0;"/><!--MD5=[d28982923c1c525c2055e2ee9b36db2a]
link employeeManager to bouncer--><path codeLine="101" d="M1198.4,354.63 C1258.52,372.95 1347.76,400.14 1407.81,418.44 " fill="none" id="employeeManager-bouncer" style="stroke:#A80036;stroke-width:1.0;"/><polygon fill="#A80036" points="1412.81,419.96,1405.3653,413.512,1408.0268,418.5036,1403.0351,421.1651,1412.81,419.96" style="stroke:#A80036;stroke-width:1.0;"/><polygon fill="#A80036" points="1193.26,353.06,1200.7047,359.508,1198.0432,354.5164,1203.0349,351.8549,1193.26,353.06" style="stroke:#A80036;stroke-width:1.0;"/><!--MD5=[4a365a028685e034b4d49673d248218e]
link recognitionAI to bouncer--><path codeLine="102" d="M1636,348.62 C1603.66,366.25 1547.03,397.11 1509.51,417.56 " fill="none" id="recognitionAI-bouncer" style="stroke:#A80036;stroke-width:1.0;"/><polygon fill="#A80036" points="1505.04,420,1514.8574,419.2131,1509.4322,417.6108,1511.0346,412.1856,1505.04,420" style="stroke:#A80036;stroke-width:1.0;"/><polygon fill="#A80036" points="1640.77,346.02,1630.9526,346.8069,1636.3778,348.4092,1634.7754,353.8344,1640.77,346.02" style="stroke:#A80036;stroke-width:1.0;"/><!--MD5=[6816c5cdd0f886d6961fb98851935a2c]
reverse link streamer to cameraman--><path codeLine="103" d="M982.64,136.39 C1122.88,172.72 1179.55,122.12 1303,196 C1351.95,225.29 1388.08,284.89 1404,314.89 " fill="none" id="streamer-backto-cameraman" style="stroke:#A80036;stroke-width:1.0;"/><polygon fill="#A80036" points="977.62,135.06,985.2877,141.2411,982.4516,136.3465,987.3462,133.5104,977.62,135.06" style="stroke:#A80036;stroke-width:1.0;"/><!--MD5=[b6a756c1ee61829da5f39f4085db615d]
link starter to cameraman--><path codeLine="104" d="M1443.18,129.05 C1430.07,145.3 1412.42,170.48 1405,196 C1393.73,234.77 1400.88,282.24 1407.01,309.9 " fill="none" id="starter-to-cameraman" style="stroke:#A80036;stroke-width:1.0;"/><polygon fill="#A80036" points="1408.14,314.83,1410.0325,305.1647,1407.0251,309.9559,1402.2339,306.9485,1408.14,314.83" style="stroke:#A80036;stroke-width:1.0;"/><!--MD5=[d996bef226dfab854b4f932aecf20a20]
link starter to bouncer--><path codeLine="105" d="M1475.11,129 C1488.46,145.22 1506.43,170.38 1514,196 C1534.64,265.9 1531.82,289.32 1514,360 C1508.96,380 1497.67,400.46 1488.06,415.4 " fill="none" id="starter-to-bouncer" style="stroke:#A80036;stroke-width:1.0;"/><polygon fill="#A80036" points="1485.15,419.85,1493.4285,414.5146,1487.8905,415.6679,1486.7372,410.1299,1485.15,419.85" style="stroke:#A80036;stroke-width:1.0;"/><!--MD5=[fa299bfa577a1c4b0961377a7b182108]
link starter to UISS--><path codeLine="106" d="M1459,129.16 C1459,147.87 1459,177.11 1459,197.55 " fill="none" id="starter-to-UISS" style="stroke:#A80036;stroke-width:1.0;"/><polygon fill="#A80036" points="1459,202.81,1463,193.81,1459,197.81,1455,193.81,1459,202.81" style="stroke:#A80036;stroke-width:1.0;"/><!--MD5=[78f637aa86a64e68ab292f9f734967ec]
link guard to proxyConnectionManager--><path codeLine="107" d="M103.35,122.15 C145.28,140.6 229.67,177.74 282.24,200.87 " fill="none" id="guard-to-proxyConnectionManager" style="stroke:#A80036;stroke-width:1.0;"/><polygon fill="#A80036" points="286.91,202.92,280.2869,195.6306,282.3345,200.9039,277.0612,202.9515,286.91,202.92" style="stroke:#A80036;stroke-width:1.0;"/><!--MD5=[0fc7e1f5343dcc0e89b9f474a655fa97]
link proxyConnectionManager to postmanAOP--><path codeLine="108" d="M371.63,241.04 C414.32,258.7 479.88,285.81 528.77,306.02 " fill="none" id="proxyConnectionManager-to-postmanAOP" style="stroke:#A80036;stroke-width:1.0;"/><polygon fill="#A80036" points="533.44,307.96,526.6409,300.8345,528.8166,306.0563,523.5949,308.232,533.44,307.96" style="stroke:#A80036;stroke-width:1.0;"/><!--MD5=[3a04ec226fa96fb4934ff8c5f9f415c8]
link dataEmployee to employeeManager--><path codeLine="109" d="M1134,241.16 C1134,259.87 1134,289.11 1134,309.55 " fill="none" id="dataEmployee-to-employeeManager" style="stroke:#A80036;stroke-width:1.0;"/><polygon fill="#A80036" points="1134,314.81,1138,305.81,1134,309.81,1130,305.81,1134,314.81" style="stroke:#A80036;stroke-width:1.0;"/><!--MD5=[fbfe45451d0f7ade92785185c57aede7]
link proxyGUI to postmanAOP--><path codeLine="110" d="M594,241.16 C594,257.86 594,282.93 594,302.66 " fill="none" id="proxyGUI-to-postmanAOP" style="stroke:#A80036;stroke-width:1.0;"/><polygon fill="#A80036" points="594,307.81,598,298.81,594,302.81,590,298.81,594,307.81" style="stroke:#A80036;stroke-width:1.0;"/><!--MD5=[618387bf2eb54b8e8a1dbee36d398413]
link postmanAOP to dispatcherAOP--><path codeLine="111" d="M662.87,360.06 C711.96,377.93 777.06,401.63 822.54,418.18 " fill="none" id="postmanAOP-to-dispatcherAOP" style="stroke:#A80036;stroke-width:1.0;"/><polygon fill="#A80036" points="827.43,419.96,820.3272,413.1373,822.7281,418.2593,817.6061,420.6603,827.43,419.96" style="stroke:#A80036;stroke-width:1.0;"/><!--MD5=[46896b3de527ee98fe2cc2246e83f9f5]
reverse link proxyDoorManager to dispatcherAOP--><path codeLine="112" d="M617.34,129.96 C717.76,148.32 852.78,176.21 869,196 C896.85,229.97 884.56,369.77 879.11,419.96 " fill="none" id="proxyDoorManager-backto-dispatcherAOP" style="stroke:#A80036;stroke-width:1.0;"/><polygon fill="#A80036" points="612.28,129.04,620.4278,134.5729,617.2007,129.9269,621.8468,126.6998,612.28,129.04" style="stroke:#A80036;stroke-width:1.0;"/><!--MD5=[73851db7b110d563560a266ba73d4b6e]
reverse link cameraman to dispatcherAOP--><path codeLine="113" d="M1324.07,352.09 C1226.49,370.84 1070.52,400.81 970.98,419.94 " fill="none" id="cameraman-backto-dispatcherAOP" style="stroke:#A80036;stroke-width:1.0;"/><polygon fill="#A80036" points="1329.25,351.09,1319.6575,348.8575,1324.3396,352.0321,1321.1649,356.7142,1329.25,351.09" style="stroke:#A80036;stroke-width:1.0;"/><!--MD5=[7fd55d0b7131389220841eec3d89d7e9]
reverse link guard to dispatcherAOP--><path codeLine="114" d="M81.1,126.96 C87.45,155.4 104.59,214.94 142,248 C236,331.08 596.66,395.67 775.39,423.32 " fill="none" id="guard-backto-dispatcherAOP" style="stroke:#A80036;stroke-width:1.0;"/><polygon fill="#A80036" points="80.04,122.03,78.0069,131.6667,81.0837,126.9198,85.8306,129.9967,80.04,122.03" style="stroke:#A80036;stroke-width:1.0;"/><!--MD5=[8474843e93c1101c181e8d7920b279cb]
reverse link employeeManager to dispatcherAOP--><path codeLine="115" d="M1084.18,354.97 C1037.18,373.8 967.36,401.78 922.01,419.96 " fill="none" id="employeeManager-backto-dispatcherAOP" style="stroke:#A80036;stroke-width:1.0;"/><polygon fill="#A80036" points="1088.94,353.06,1079.0981,352.6886,1084.2976,354.917,1082.0693,360.1164,1088.94,353.06" style="stroke:#A80036;stroke-width:1.0;"/><!--MD5=[09f5285f941d4178b0db89059f93c041]
link dispatcherSP to proxyGUI--><path codeLine="116" d="M308.09,129.04 C369.96,148.94 469.19,180.86 532.97,201.37 " fill="none" id="dispatcherSP-to-proxyGUI" style="stroke:#A80036;stroke-width:1.0;"/><polygon fill="#A80036" points="537.88,202.95,530.5351,196.3885,533.1197,201.4204,528.0878,204.005,537.88,202.95" style="stroke:#A80036;stroke-width:1.0;"/><!--MD5=[fbc846a9ff90819789c34899a5070e7a]
link dispatcherSP to postmanSP--><path codeLine="117" d="M329.75,129.01 C340.57,131.42 351.55,133.81 362,136 C500.2,164.98 536.19,165.2 674,196 C678.19,196.94 682.47,197.92 686.79,198.94 " fill="none" id="dispatcherSP-to-postmanSP" style="stroke:#A80036;stroke-width:1.0;"/><polygon fill="#A80036" points="691.87,200.14,684.042,194.1632,687.0061,198.9813,682.188,201.9454,691.87,200.14" style="stroke:#A80036;stroke-width:1.0;"/><!--MD5=[ac071a3c769f13fddce5c63585c9a66a]
link proxyUISP to postmanSP--><path codeLine="118" d="M744.45,129.16 C749.48,145.93 757.04,171.14 762.97,190.91 " fill="none" id="proxyUISP-to-postmanSP" style="stroke:#A80036;stroke-width:1.0;"/><polygon fill="#A80036" points="764.44,195.81,765.6986,186.0419,763.0098,191.0189,758.0328,188.3302,764.44,195.81" style="stroke:#A80036;stroke-width:1.0;"/><!--MD5=[a0f7f5183bd0aa6daf81cc247c53149b]
reverse link proxyUISP to bouncer--><path codeLine="119" d="M803.3,130.35 C811.24,132.42 819.28,134.36 827,136 C919.88,155.68 1175.89,136.66 1250,196 C1310.83,244.7 1259.5,302.42 1312,360 C1338.34,388.89 1377.72,408.27 1410.81,420.49 " fill="none" id="proxyUISP-backto-bouncer" style="stroke:#A80036;stroke-width:1.0;"/><polygon fill="#A80036" points="798.37,129.05,806.0548,135.2099,803.2052,130.3232,808.0919,127.4736,798.37,129.05" style="stroke:#A80036;stroke-width:1.0;"/><!--MD5=[612ad6348c05c9c8698ccf6a46fec3c7]
link proxyDoorManager to postmanSP--><path codeLine="120" d="M550.46,129.04 C592.99,146.7 658.31,173.81 707.01,194.02 " fill="none" id="proxyDoorManager-to-postmanSP" style="stroke:#A80036;stroke-width:1.0;"/><polygon fill="#A80036" points="711.67,195.96,704.9086,188.7987,707.0567,194.0319,701.8236,196.18,711.67,195.96" style="stroke:#A80036;stroke-width:1.0;"/><!--MD5=[24afb9a65630bdda974f1b43d09a7490]
link UISS to cameraman--><path codeLine="121" d="M1449.42,245.9 C1441.6,264.6 1430.6,290.91 1422.74,309.72 " fill="none" id="UISS-cameraman" style="stroke:#A80036;stroke-width:1.0;"/><polygon fill="#A80036" points="1420.61,314.81,1427.7713,308.0486,1422.5381,310.1967,1420.39,304.9636,1420.61,314.81" style="stroke:#A80036;stroke-width:1.0;"/><polygon fill="#A80036" points="1451.4,241.16,1444.2387,247.9214,1449.4719,245.7733,1451.62,251.0064,1451.4,241.16" style="stroke:#A80036;stroke-width:1.0;"/><!--MD5=[241fdfa138e745fb261bb500fc38d26b]
@startuml
'left to right direction
skinparam classAttributeIconSize 0
skinparam shadowing false
hide circle
hide empty members
'hide fields

allowmixing
package SoftSonnette {
	class "cameraman : Cameraman" as cameraman <<active>> {
	}
}
package SoftSonnette {
	class "guard : Guard" as guard  {
	}
}
package SoftSonnette {
	class "clock : Clock" as clock <<protected>> {
	}
}
package SoftSonnette {
	class "bouncer : Bouncer" as bouncer <<active>> {
	}
}
package SoftSonnette {
	class "recognitionAI : RecognitionAI" as recognitionAI  {
	}
}
package SoftSonnette {
	class "employeeManager : EmployeeManager" as employeeManager <<entity>> {
	}
}
package SoftSonnette {
	class "starter : Starter" as starter <<active>> {
	}
}
package SoftSonnette {
	package com {
		class "proxyConnectionManager : ProxyConnectionManager" as proxyConnectionManager <<medium>> {
		}
	}
}
package SoftSonnette {
	package com {
		class "streamer : Streamer" as streamer <<boundary>><<medium>> {
		}
	}
}
package SoftSonnette {
	class "dataEmployee : DataEmployee" as dataEmployee <<entity>> {
	}
}
package SoftSonnette {
	package com {
		class "dispatcherAOP : DispatcherAOP" as dispatcherAOP <<medium>> {
		}
	}
}
package SoftSonnette {
	package com {
		class "postmanAOP : PostmanAOP" as postmanAOP <<active>><<medium>> {
		}
	}
}
package SoftSonnette {
	package com {
		class "proxyGUI : ProxyGUI" as proxyGUI <<medium>> {
		}
	}
}
package SoftSonnette {
	package com {
		class "dispatcherSP : DispatcherSP" as dispatcherSP <<medium>> {
		}
	}
}
package SoftSonnette {
	package com {
		class "postmanSP : PostmanSP" as postmanSP <<active>><<medium>> {
		}
	}
}
package SoftSonnette {
	package com {
		class "proxyDoorManager : ProxyDoorManager" as proxyDoorManager <<medium>> {
		}
	}
}
package SoftSonnette {
	package com {
		class "proxyUISP : ProxyUISP" as proxyUISP <<medium>> {
		}
	}
}
package SoftSonnette {
	class "UISS : UISS" as UISS <<active>> {
	}
}
clock <- - bouncer
cameraman <- -> bouncer
employeeManager <- -> bouncer
recognitionAI <- -> bouncer
streamer <- - cameraman
starter - -> cameraman
starter - -> bouncer
starter - -> UISS
guard - -> proxyConnectionManager
proxyConnectionManager - -> postmanAOP
dataEmployee - -> employeeManager
proxyGUI - -> postmanAOP
postmanAOP - -> dispatcherAOP
proxyDoorManager <- - dispatcherAOP
cameraman <- - dispatcherAOP
guard <- - dispatcherAOP
employeeManager <- - dispatcherAOP
dispatcherSP - -> proxyGUI
dispatcherSP - -> postmanSP
proxyUISP - -> postmanSP
proxyUISP <- - bouncer
proxyDoorManager - -> postmanSP
UISS <- -> cameraman
@enduml

@startuml
skinparam classAttributeIconSize 0
skinparam shadowing false
hide circle
hide empty members

allowmixing
package SoftSonnette {
	class "cameraman : Cameraman" as cameraman <<active>> {
	}
}
package SoftSonnette {
	class "guard : Guard" as guard  {
	}
}
package SoftSonnette {
	class "clock : Clock" as clock <<protected>> {
	}
}
package SoftSonnette {
	class "bouncer : Bouncer" as bouncer <<active>> {
	}
}
package SoftSonnette {
	class "recognitionAI : RecognitionAI" as recognitionAI  {
	}
}
package SoftSonnette {
	class "employeeManager : EmployeeManager" as employeeManager <<entity>> {
	}
}
package SoftSonnette {
	class "starter : Starter" as starter <<active>> {
	}
}
package SoftSonnette {
	package com {
		class "proxyConnectionManager : ProxyConnectionManager" as proxyConnectionManager <<medium>> {
		}
	}
}
package SoftSonnette {
	package com {
		class "streamer : Streamer" as streamer <<boundary>><<medium>> {
		}
	}
}
package SoftSonnette {
	class "dataEmployee : DataEmployee" as dataEmployee <<entity>> {
	}
}
package SoftSonnette {
	package com {
		class "dispatcherAOP : DispatcherAOP" as dispatcherAOP <<medium>> {
		}
	}
}
package SoftSonnette {
	package com {
		class "postmanAOP : PostmanAOP" as postmanAOP <<active>><<medium>> {
		}
	}
}
package SoftSonnette {
	package com {
		class "proxyGUI : ProxyGUI" as proxyGUI <<medium>> {
		}
	}
}
package SoftSonnette {
	package com {
		class "dispatcherSP : DispatcherSP" as dispatcherSP <<medium>> {
		}
	}
}
package SoftSonnette {
	package com {
		class "postmanSP : PostmanSP" as postmanSP <<active>><<medium>> {
		}
	}
}
package SoftSonnette {
	package com {
		class "proxyDoorManager : ProxyDoorManager" as proxyDoorManager <<medium>> {
		}
	}
}
package SoftSonnette {
	package com {
		class "proxyUISP : ProxyUISP" as proxyUISP <<medium>> {
		}
	}
}
package SoftSonnette {
	class "UISS : UISS" as UISS <<active>> {
	}
}
clock <- - bouncer
cameraman <- -> bouncer
employeeManager <- -> bouncer
recognitionAI <- -> bouncer
streamer <- - cameraman
starter - -> cameraman
starter - -> bouncer
starter - -> UISS
guard - -> proxyConnectionManager
proxyConnectionManager - -> postmanAOP
dataEmployee - -> employeeManager
proxyGUI - -> postmanAOP
postmanAOP - -> dispatcherAOP
proxyDoorManager <- - dispatcherAOP
cameraman <- - dispatcherAOP
guard <- - dispatcherAOP
employeeManager <- - dispatcherAOP
dispatcherSP - -> proxyGUI
dispatcherSP - -> postmanSP
proxyUISP - -> postmanSP
proxyUISP <- - bouncer
proxyDoorManager - -> postmanSP
UISS <- -> cameraman
@enduml

PlantUML version 1.2020.22(Sun Dec 06 09:36:27 UTC 2020)
(GPL source distribution)
Java Runtime: OpenJDK Runtime Environment
JVM: OpenJDK 64-Bit Server VM
Default Encoding: UTF-8
Language: en
Country: null
--></g></svg>