<?xml version="1.0" encoding="windows-1252" standalone="no"?>
<svg xmlns="http://www.w3.org/2000/svg" xmlns:xlink="http://www.w3.org/1999/xlink" contentStyleType="text/css" height="838px" preserveAspectRatio="none" style="width:1400px;height:838px;background:#FFFFFF;" version="1.1" viewBox="0 0 1400 838" width="1400px" zoomAndPan="magnify"><defs/><g><rect fill="none" height="269.7969" style="stroke:#000000;stroke-width:1.5;" width="1196.5" x="198" y="299.3594"/><line style="stroke:#181818;stroke-width:0.5;stroke-dasharray:5.0,5.0;" x1="67" x2="67" y1="36.2969" y2="803.0859"/><line style="stroke:#181818;stroke-width:0.5;stroke-dasharray:5.0,5.0;" x1="227" x2="227" y1="36.2969" y2="803.0859"/><line style="stroke:#181818;stroke-width:0.5;stroke-dasharray:5.0,5.0;" x1="400" x2="400" y1="36.2969" y2="803.0859"/><line style="stroke:#181818;stroke-width:0.5;stroke-dasharray:5.0,5.0;" x1="574" x2="574" y1="36.2969" y2="803.0859"/><line style="stroke:#181818;stroke-width:0.5;stroke-dasharray:5.0,5.0;" x1="731" x2="731" y1="36.2969" y2="803.0859"/><line style="stroke:#181818;stroke-width:0.5;stroke-dasharray:5.0,5.0;" x1="875" x2="875" y1="36.2969" y2="803.0859"/><line style="stroke:#181818;stroke-width:0.5;stroke-dasharray:5.0,5.0;" x1="1162.5" x2="1162.5" y1="36.2969" y2="803.0859"/><line style="stroke:#181818;stroke-width:0.5;stroke-dasharray:5.0,5.0;" x1="1344.5" x2="1344.5" y1="36.2969" y2="803.0859"/><rect fill="#E2E2F0" height="30.2969" rx="2.5" ry="2.5" style="stroke:#181818;stroke-width:0.5;" width="124" x="5" y="5"/><text fill="#000000" font-family="sans-serif" font-size="14" lengthAdjust="spacing" textLength="110" x="12" y="24.9951">Démonstrateur</text><rect fill="#E2E2F0" height="30.2969" rx="2.5" ry="2.5" style="stroke:#181818;stroke-width:0.5;" width="124" x="5" y="802.0859"/><text fill="#000000" font-family="sans-serif" font-size="14" lengthAdjust="spacing" textLength="110" x="12" y="822.0811">Démonstrateur</text><rect fill="#E2E2F0" height="30.2969" rx="2.5" ry="2.5" style="stroke:#181818;stroke-width:0.5;" width="38" x="208" y="5"/><text fill="#000000" font-family="sans-serif" font-size="14" lengthAdjust="spacing" textLength="24" x="215" y="24.9951">GUI</text><rect fill="#E2E2F0" height="30.2969" rx="2.5" ry="2.5" style="stroke:#181818;stroke-width:0.5;" width="38" x="208" y="802.0859"/><text fill="#000000" font-family="sans-serif" font-size="14" lengthAdjust="spacing" textLength="24" x="215" y="822.0811">GUI</text><rect fill="#E2E2F0" height="30.2969" rx="2.5" ry="2.5" style="stroke:#181818;stroke-width:0.5;" width="144" x="328" y="5"/><text fill="#000000" font-family="sans-serif" font-size="14" lengthAdjust="spacing" textLength="130" x="335" y="24.9951">CacheCameraman</text><rect fill="#E2E2F0" height="30.2969" rx="2.5" ry="2.5" style="stroke:#181818;stroke-width:0.5;" width="144" x="328" y="802.0859"/><text fill="#000000" font-family="sans-serif" font-size="14" lengthAdjust="spacing" textLength="130" x="335" y="822.0811">CacheCameraman</text><rect fill="#E2E2F0" height="30.2969" rx="2.5" ry="2.5" style="stroke:#181818;stroke-width:0.5;" width="118" x="515" y="5"/><text fill="#000000" font-family="sans-serif" font-size="14" lengthAdjust="spacing" textLength="104" x="522" y="24.9951">PostmanVideo</text><rect fill="#E2E2F0" height="30.2969" rx="2.5" ry="2.5" style="stroke:#181818;stroke-width:0.5;" width="118" x="515" y="802.0859"/><text fill="#000000" font-family="sans-serif" font-size="14" lengthAdjust="spacing" textLength="104" x="522" y="822.0811">PostmanVideo</text><rect fill="#E2E2F0" height="30.2969" rx="2.5" ry="2.5" style="stroke:#181818;stroke-width:0.5;" width="176" x="643" y="5"/><text fill="#000000" font-family="sans-serif" font-size="14" lengthAdjust="spacing" textLength="162" x="650" y="24.9951">PostmanSoftSonnette</text><rect fill="#E2E2F0" height="30.2969" rx="2.5" ry="2.5" style="stroke:#181818;stroke-width:0.5;" width="176" x="643" y="802.0859"/><text fill="#000000" font-family="sans-serif" font-size="14" lengthAdjust="spacing" textLength="162" x="650" y="822.0811">PostmanSoftSonnette</text><rect fill="#E2E2F0" height="30.2969" rx="2.5" ry="2.5" style="stroke:#181818;stroke-width:0.5;" width="93" x="829" y="5"/><text fill="#000000" font-family="sans-serif" font-size="14" lengthAdjust="spacing" textLength="79" x="836" y="24.9951">Dispatcher</text><rect fill="#E2E2F0" height="30.2969" rx="2.5" ry="2.5" style="stroke:#181818;stroke-width:0.5;" width="93" x="829" y="802.0859"/><text fill="#000000" font-family="sans-serif" font-size="14" lengthAdjust="spacing" textLength="79" x="836" y="822.0811">Dispatcher</text><rect fill="#E2E2F0" height="30.2969" rx="2.5" ry="2.5" style="stroke:#181818;stroke-width:0.5;" width="98" x="1113.5" y="5"/><text fill="#000000" font-family="sans-serif" font-size="14" lengthAdjust="spacing" textLength="84" x="1120.5" y="24.9951">cameraman</text><rect fill="#E2E2F0" height="30.2969" rx="2.5" ry="2.5" style="stroke:#181818;stroke-width:0.5;" width="98" x="1113.5" y="802.0859"/><text fill="#000000" font-family="sans-serif" font-size="14" lengthAdjust="spacing" textLength="84" x="1120.5" y="822.0811">cameraman</text><rect fill="#E2E2F0" height="30.2969" rx="2.5" ry="2.5" style="stroke:#181818;stroke-width:0.5;" width="80" x="1304.5" y="5"/><text fill="#000000" font-family="sans-serif" font-size="14" lengthAdjust="spacing" textLength="66" x="1311.5" y="24.9951">streamer</text><rect fill="#E2E2F0" height="30.2969" rx="2.5" ry="2.5" style="stroke:#181818;stroke-width:0.5;" width="80" x="1304.5" y="802.0859"/><text fill="#000000" font-family="sans-serif" font-size="14" lengthAdjust="spacing" textLength="66" x="1311.5" y="822.0811">streamer</text><polygon fill="#181818" points="215,63.4297,225,67.4297,215,71.4297,219,67.4297" style="stroke:#181818;stroke-width:1.0;"/><line style="stroke:#181818;stroke-width:1.0;" x1="67" x2="221" y1="67.4297" y2="67.4297"/><text fill="#000000" font-family="sans-serif" font-size="13" lengthAdjust="spacing" textLength="136" x="74" y="62.3638">askScreen(VIDEO_ID)</text><line style="stroke:#181818;stroke-width:1.0;" x1="227" x2="269" y1="96.5625" y2="96.5625"/><line style="stroke:#181818;stroke-width:1.0;" x1="269" x2="269" y1="96.5625" y2="109.5625"/><line style="stroke:#181818;stroke-width:1.0;" x1="228" x2="269" y1="109.5625" y2="109.5625"/><polygon fill="#181818" points="238,105.5625,228,109.5625,238,113.5625,234,109.5625" style="stroke:#181818;stroke-width:1.0;"/><text fill="#000000" font-family="sans-serif" font-size="13" lengthAdjust="spacing" textLength="159" x="234" y="91.4966">displayScreen(VIDEO_ID)</text><polygon fill="#181818" points="562,134.6953,572,138.6953,562,142.6953,566,138.6953" style="stroke:#181818;stroke-width:1.0;"/><line style="stroke:#181818;stroke-width:1.0;" x1="227" x2="568" y1="138.6953" y2="138.6953"/><text fill="#000000" font-family="sans-serif" font-size="13" lengthAdjust="spacing" textLength="263" x="234" y="133.6294">cameraman_subscribeToVideoStream(1)</text><polygon fill="#181818" points="388,163.8281,398,167.8281,388,171.8281,392,167.8281" style="stroke:#181818;stroke-width:1.0;"/><line style="stroke:#181818;stroke-width:1.0;" x1="227" x2="394" y1="167.8281" y2="167.8281"/><text fill="#000000" font-family="sans-serif" font-size="13" lengthAdjust="spacing" textLength="138" x="234" y="162.7622">initializeMediaCodec()</text><polygon fill="#181818" points="719,192.9609,729,196.9609,719,200.9609,723,196.9609" style="stroke:#181818;stroke-width:1.0;"/><line style="stroke:#181818;stroke-width:1.0;" x1="574" x2="725" y1="196.9609" y2="196.9609"/><text fill="#000000" font-family="sans-serif" font-size="13" lengthAdjust="spacing" textLength="66" x="581" y="191.895">sendMsg()</text><polygon fill="#181818" points="863.5,222.0938,873.5,226.0938,863.5,230.0938,867.5,226.0938" style="stroke:#181818;stroke-width:1.0;"/><line style="stroke:#181818;stroke-width:1.0;" x1="731" x2="869.5" y1="226.0938" y2="226.0938"/><text fill="#000000" font-family="sans-serif" font-size="13" lengthAdjust="spacing" textLength="64" x="738" y="221.0278">dispatch()</text><polygon fill="#181818" points="1150.5,251.2266,1160.5,255.2266,1150.5,259.2266,1154.5,255.2266" style="stroke:#181818;stroke-width:1.0;"/><line style="stroke:#181818;stroke-width:1.0;" x1="875.5" x2="1156.5" y1="255.2266" y2="255.2266"/><text fill="#000000" font-family="sans-serif" font-size="13" lengthAdjust="spacing" textLength="263" x="882.5" y="250.1606">cameraman_subscribeToVideoStream(1)</text><polygon fill="#181818" points="1332.5,280.3594,1342.5,284.3594,1332.5,288.3594,1336.5,284.3594" style="stroke:#181818;stroke-width:1.0;"/><line style="stroke:#181818;stroke-width:1.0;" x1="1162.5" x2="1338.5" y1="284.3594" y2="284.3594"/><text fill="#000000" font-family="sans-serif" font-size="13" lengthAdjust="spacing" textLength="141" x="1169.5" y="279.2935">streamer_streamTel()</text><path d="M198,299.3594 L276,299.3594 L276,306.4922 L266,316.4922 L198,316.4922 L198,299.3594 " fill="#EEEEEE" style="stroke:#000000;stroke-width:1.5;"/><rect fill="none" height="269.7969" style="stroke:#000000;stroke-width:1.5;" width="1196.5" x="198" y="299.3594"/><text fill="#000000" font-family="sans-serif" font-size="13" font-weight="bold" lengthAdjust="spacing" textLength="33" x="213" y="312.4263">loop</text><a href="Every" target="_top" title="Every" xlink:actuate="onRequest" xlink:href="Every" xlink:show="new" xlink:title="Every" xlink:type="simple"><text fill="#0000FF" font-family="sans-serif" font-size="11" font-weight="bold" lengthAdjust="spacing" text-decoration="underline" textLength="86" x="291" y="311.5698">1/15 seconds</text></a><polygon fill="#181818" points="585,318.4922,575,322.4922,585,326.4922,581,322.4922" style="stroke:#181818;stroke-width:1.0;"/><line style="stroke:#181818;stroke-width:1.0;stroke-dasharray:2.0,2.0;" x1="579" x2="1343.5" y1="322.4922" y2="322.4922"/><line style="stroke:#181818;stroke-width:1.0;" x1="574" x2="616" y1="351.625" y2="351.625"/><line style="stroke:#181818;stroke-width:1.0;" x1="616" x2="616" y1="351.625" y2="364.625"/><line style="stroke:#181818;stroke-width:1.0;" x1="575" x2="616" y1="364.625" y2="364.625"/><polygon fill="#181818" points="585,360.625,575,364.625,585,368.625,581,364.625" style="stroke:#181818;stroke-width:1.0;"/><text fill="#000000" font-family="sans-serif" font-size="13" lengthAdjust="spacing" textLength="70" x="581" y="346.5591">readData()</text><polygon fill="#181818" points="411,374.625,401,378.625,411,382.625,407,378.625" style="stroke:#181818;stroke-width:1.0;"/><line style="stroke:#181818;stroke-width:1.0;stroke-dasharray:2.0,2.0;" x1="405" x2="573" y1="378.625" y2="378.625"/><line style="stroke:#181818;stroke-width:1.0;" x1="400" x2="442" y1="407.7578" y2="407.7578"/><line style="stroke:#181818;stroke-width:1.0;" x1="442" x2="442" y1="407.7578" y2="420.7578"/><line style="stroke:#181818;stroke-width:1.0;" x1="401" x2="442" y1="420.7578" y2="420.7578"/><polygon fill="#181818" points="411,416.7578,401,420.7578,411,424.7578,407,420.7578" style="stroke:#181818;stroke-width:1.0;"/><text fill="#000000" font-family="sans-serif" font-size="13" lengthAdjust="spacing" textLength="160" x="407" y="402.6919">storeData(receivedData)</text><line style="stroke:#181818;stroke-width:1.0;" x1="400" x2="442" y1="449.8906" y2="449.8906"/><line style="stroke:#181818;stroke-width:1.0;" x1="442" x2="442" y1="449.8906" y2="462.8906"/><line style="stroke:#181818;stroke-width:1.0;" x1="401" x2="442" y1="462.8906" y2="462.8906"/><polygon fill="#181818" points="411,458.8906,401,462.8906,411,466.8906,407,462.8906" style="stroke:#181818;stroke-width:1.0;"/><text fill="#000000" font-family="sans-serif" font-size="13" lengthAdjust="spacing" textLength="67" x="407" y="444.8247">runVideo()</text><line style="stroke:#181818;stroke-width:1.0;" x1="400" x2="442" y1="492.0234" y2="492.0234"/><line style="stroke:#181818;stroke-width:1.0;" x1="442" x2="442" y1="492.0234" y2="505.0234"/><line style="stroke:#181818;stroke-width:1.0;" x1="401" x2="442" y1="505.0234" y2="505.0234"/><polygon fill="#181818" points="411,501.0234,401,505.0234,411,509.0234,407,505.0234" style="stroke:#181818;stroke-width:1.0;"/><text fill="#000000" font-family="sans-serif" font-size="13" lengthAdjust="spacing" textLength="126" x="407" y="486.9575">stream(frameData)</text><line style="stroke:#181818;stroke-width:1.0;" x1="400" x2="442" y1="534.1563" y2="534.1563"/><line style="stroke:#181818;stroke-width:1.0;" x1="442" x2="442" y1="534.1563" y2="547.1563"/><line style="stroke:#181818;stroke-width:1.0;" x1="401" x2="442" y1="547.1563" y2="547.1563"/><polygon fill="#181818" points="411,543.1563,401,547.1563,411,551.1563,407,547.1563" style="stroke:#181818;stroke-width:1.0;"/><text fill="#000000" font-family="sans-serif" font-size="13" lengthAdjust="spacing" textLength="131" x="407" y="529.0903">callback(frameData)</text><polygon fill="#181818" points="238,557.1563,228,561.1563,238,565.1563,234,561.1563" style="stroke:#181818;stroke-width:1.0;"/><line style="stroke:#181818;stroke-width:1.0;stroke-dasharray:2.0,2.0;" x1="232" x2="399" y1="561.1563" y2="561.1563"/><polygon fill="#181818" points="215,593.2891,225,597.2891,215,601.2891,219,597.2891" style="stroke:#181818;stroke-width:1.0;"/><line style="stroke:#181818;stroke-width:1.0;" x1="67" x2="221" y1="597.2891" y2="597.2891"/><text fill="#000000" font-family="sans-serif" font-size="13" lengthAdjust="spacing" textLength="49" x="74" y="592.2231">return()</text><polygon fill="#181818" points="562,622.4219,572,626.4219,562,630.4219,566,626.4219" style="stroke:#181818;stroke-width:1.0;"/><line style="stroke:#181818;stroke-width:1.0;" x1="227" x2="568" y1="626.4219" y2="626.4219"/><text fill="#000000" font-family="sans-serif" font-size="13" lengthAdjust="spacing" textLength="263" x="234" y="621.356">cameraman_subscribeToVideoStream(0)</text><polygon fill="#181818" points="719,651.5547,729,655.5547,719,659.5547,723,655.5547" style="stroke:#181818;stroke-width:1.0;"/><line style="stroke:#181818;stroke-width:1.0;" x1="574" x2="725" y1="655.5547" y2="655.5547"/><text fill="#000000" font-family="sans-serif" font-size="13" lengthAdjust="spacing" textLength="66" x="581" y="650.4888">sendMsg()</text><polygon fill="#181818" points="863.5,680.6875,873.5,684.6875,863.5,688.6875,867.5,684.6875" style="stroke:#181818;stroke-width:1.0;"/><line style="stroke:#181818;stroke-width:1.0;" x1="731" x2="869.5" y1="684.6875" y2="684.6875"/><text fill="#000000" font-family="sans-serif" font-size="13" lengthAdjust="spacing" textLength="64" x="738" y="679.6216">dispatch()</text><polygon fill="#181818" points="1150.5,709.8203,1160.5,713.8203,1150.5,717.8203,1154.5,713.8203" style="stroke:#181818;stroke-width:1.0;"/><line style="stroke:#181818;stroke-width:1.0;" x1="875.5" x2="1156.5" y1="713.8203" y2="713.8203"/><text fill="#000000" font-family="sans-serif" font-size="13" lengthAdjust="spacing" textLength="263" x="882.5" y="708.7544">cameraman_subscribeToVideoStream(0)</text><polygon fill="#181818" points="1332.5,738.9531,1342.5,742.9531,1332.5,746.9531,1336.5,742.9531" style="stroke:#181818;stroke-width:1.0;"/><line style="stroke:#181818;stroke-width:1.0;" x1="1162.5" x2="1338.5" y1="742.9531" y2="742.9531"/><text fill="#000000" font-family="sans-serif" font-size="13" lengthAdjust="spacing" textLength="158" x="1169.5" y="737.8872">streamer_streamEcran()</text><line style="stroke:#181818;stroke-width:1.0;" x1="227" x2="269" y1="772.0859" y2="772.0859"/><line style="stroke:#181818;stroke-width:1.0;" x1="269" x2="269" y1="772.0859" y2="785.0859"/><line style="stroke:#181818;stroke-width:1.0;" x1="228" x2="269" y1="785.0859" y2="785.0859"/><polygon fill="#181818" points="238,781.0859,228,785.0859,238,789.0859,234,785.0859" style="stroke:#181818;stroke-width:1.0;"/><text fill="#000000" font-family="sans-serif" font-size="13" lengthAdjust="spacing" textLength="156" x="234" y="767.02">displayScreen(HOME_ID)</text><!--SRC=[pPEnRi8m48PtFqN6P40DRMch35q8QXaGbQ0iLOKE-sWjWXtP3X9zepv7NwnE225EG8ewTNFoV-V_xiyb1MKuvIa8uyK_trifj55WC5EUL0oLrmz9McEUNiUbSEqAGw2VE8GjAjY2A9aRbtcHsbXnmHdAahWzIypasioa46WCbk301MEkKp3MyjZddQlJHYVthco7n9merOUG4D8Ol_TO31jve3SpgX25lnZ7e-bo70U4v595CDjC0lisTSISmQEgjwNELfegliAvBBHPqPRVFnaqOesuu8P3mhzmWep3K3AaliKTXvEZ4sIaKR29_gZnZcxBQh56h3pdUEszfKxXTflbnDlYAlgeEYuFXpacrYkHClNUHZjKUwz_rHzu6gaKJByJKfNs6fbU6hyCtBDbB0O3xQHQ4HFIYFpCHz16AYpkKqYHxx2uFEXIghA3inzqCoeoNDj7x6n18KbMG3TEMQlkiBo4s9MulFeAJQQ47_nraSF_l9dXvSriBEQ8AgYdK8JZ_lJFqyae_-T_0G00]--></g></svg>